# xmcd
#
# Track frame offsets:
#	150
#	39421
#	65264
#	95502
#	127462
#	149722
#	173210
#	195785
#	217926
#	240918
#	269879
#	313423
#
# Disc length: 4395 seconds
#
# Revision: 1
# Processed by: cddbd v1.5.2PL0 Copyright (c) Steve Scherf et al.
# Submitted via: audiograbber 1.83.01
#
DISCID=b811290c
DTITLE=Various Artist - The Blues Bouquet Vol. 4
DYEAR=1900
DGENRE=Blues
TTITLE0=Popa Chubby - San Catri
TTITLE1=Peter Green - Gotta See Her Tonight
TTITLE2=Roy Buchanan - C.c. Rider ( Live )
TTITLE3=B.B. King and Albert Collins - Call It Stormy Monday
TTITLE4=T-Bone Walker - Goin' To Funky Town
TTITLE5=Colin James - Bad Habbits
TTITLE6=John Lee Hooker and Albert Collins - Backstabbers
TTITLE7=Keb' Mo' - Dangerous Mood
TTITLE8=B.B. King and Zucchero - Let The Good Times Roll
TTITLE9=Joe Satriani - S. M. F.
TTITLE10=Stevie Ray Vaughan - Texas Flood ( Live )
TTITLE11=Fabulous Thunderbirds - Two Time My Lovin'
EXTD=
EXTT0=
EXTT1=
EXTT2=
EXTT3=
EXTT4=
EXTT5=
EXTT6=
EXTT7=
EXTT8=
EXTT9=
EXTT10=
EXTT11=
PLAYORDER=
